<?xml version="1.0" encoding="iso-8859-1"?><!DOCTYPE svg PUBLIC "-//W3C//DTD SVG 1.1//EN" "http://www.w3.org/Graphics/SVG/1.1/DTD/svg11.dtd"><svg xmlns="http://www.w3.org/2000/svg" xmlns:xlink="http://www.w3.org/1999/xlink"><symbol viewBox="0 0 430.113 430.114" id="facebook" xmlns="http://www.w3.org/2000/svg"><path d="M158.081 83.3v59.218h-43.385v72.412h43.385v215.183h89.122V214.936h59.805s5.601-34.721 8.316-72.685H247.54V92.74c0-7.4 9.717-17.354 19.321-17.354h48.557V.001h-66.021C155.878-.004 158.081 72.48 158.081 83.3z"/></symbol><symbol viewBox="0 0 310 310" id="linkedin" xmlns="http://www.w3.org/2000/svg"><path d="M72.16 99.73H9.927a5 5 0 00-5 5v199.928a5 5 0 005 5H72.16a5 5 0 005-5V104.73a5 5 0 00-5-5zM41.066.341C18.422.341 0 18.743 0 41.362 0 63.991 18.422 82.4 41.066 82.4c22.626 0 41.033-18.41 41.033-41.038C82.1 18.743 63.692.341 41.066.341zM230.454 94.761c-24.995 0-43.472 10.745-54.679 22.954V104.73a5 5 0 00-5-5h-59.599a5 5 0 00-5 5v199.928a5 5 0 005 5h62.097a5 5 0 005-5V205.74c0-33.333 9.054-46.319 32.29-46.319 25.306 0 27.317 20.818 27.317 48.034v97.204a5 5 0 005 5H305a5 5 0 005-5V194.995c0-49.565-9.451-100.234-79.546-100.234z"/></symbol><symbol viewBox="0 0 24 24" id="mail" xmlns="http://www.w3.org/2000/svg"><path d="M20 4H4c-1.1 0-1.99.9-1.99 2L2 18c0 1.1.9 2 2 2h16c1.1 0 2-.9 2-2V6c0-1.1-.9-2-2-2zm0 4l-8 5-8-5V6l8 5 8-5v2z"/><path d="M0 0h24v24H0z" fill="none"/></symbol><symbol viewBox="0 0 430.117 430.117" id="twitter" xmlns="http://www.w3.org/2000/svg"><path d="M381.384 198.639c24.157-1.993 40.543-12.975 46.849-27.876-8.714 5.353-35.764 11.189-50.703 5.631-.732-3.51-1.55-6.844-2.353-9.854-11.383-41.798-50.357-75.472-91.194-71.404a173.448 173.448 0 019.996-3.691c4.495-1.61 30.868-5.901 26.715-15.21-3.5-8.188-35.722 6.188-41.789 8.067 8.009-3.012 21.254-8.193 22.673-17.396-12.27 1.683-24.315 7.484-33.622 15.919 3.36-3.617 5.909-8.025 6.45-12.769C241.68 90.963 222.563 133.113 207.092 174c-12.148-11.773-22.915-21.044-32.574-26.192-27.097-14.531-59.496-29.692-110.355-48.572-1.561 16.827 8.322 39.201 36.8 54.08-6.17-.826-17.453 1.017-26.477 3.178 3.675 19.277 15.677 35.159 48.169 42.839-14.849.98-22.523 4.359-29.478 11.642 6.763 13.407 23.266 29.186 52.953 25.947-33.006 14.226-13.458 40.571 13.399 36.642C113.713 320.887 41.479 317.409 0 277.828c108.299 147.572 343.716 87.274 378.799-54.866 26.285.224 41.737-9.105 51.318-19.39-15.144 2.57-37.094-.086-48.733-4.933z"/></symbol></svg>